# xmcd
#
# Track frame offsets:
#	150
#	18302
#	35836
#	50061
#	68720
#	85822
#	99222
#	116642
#	133483
#	150240
#	166394
#	181600
#	201390
#	219179
#	236254
#	255372
#	274058
#	306040
#
# Disc length: 4084 seconds
#
# Revision: 1
# Processed by: cddbd v1.5.2PL0 Copyright (c) Steve Scherf et al.
# Submitted via: audiograbber 1.83.01
#
DISCID=ec0ff212
DTITLE=Chartbuster - 5143-02
DYEAR=2010
DGENRE=Country
TTITLE0=Bucky Covington - Gotta Be Sombody
TTITLE1=Blake Shelton - All About Tonight
TTITLE2=LeAnn Rimes - Swingin'
TTITLE3=Darius Rucker - Come Back Song
TTITLE4=John Rich - Country Done Come To Town
TTITLE5=The JaneDear Girls - Wildflower
TTITLE6=James Otto - Groovy Little Summer Song
TTITLE7=Chuck Wicks - Hold That Thought
TTITLE8=Gloriana - The World Is Ours Tonight
TTITLE9=Trace Adkins - This Ain't No Love Song
TTITLE10=Frankie Ballard - Tell Me You Get Lonely
TTITLE11=Lady Antebellum - Our Kind Of Love
TTITLE12=Zac Brown Band - Free
TTITLE13=Dierks Bentley - Up On The Ridge
TTITLE14=Carrie Underwood - Mama's Song
TTITLE15=Jamey Johnson - Playing The Part
TTITLE16=Kenny Chesney - The Boys Of Fall
TTITLE17=Data Track - Data Track
EXTD=
EXTT0=
EXTT1=
EXTT2=
EXTT3=
EXTT4=
EXTT5=
EXTT6=
EXTT7=
EXTT8=
EXTT9=
EXTT10=
EXTT11=
EXTT12=
EXTT13=
EXTT14=
EXTT15=
EXTT16=
EXTT17=
PLAYORDER=
